<?xml version="1.0" encoding="UTF-8"?>
<svg id="_レイヤー_1" xmlns="http://www.w3.org/2000/svg" version="1.1" viewBox="0 0 79.9 43.2">
  <!-- Generator: Adobe Illustrator 30.6.0, SVG Export Plug-In . SVG Version: 2.1.4 Build 109)  -->
  <defs>
    <style>
      .st0 {
        fill: #fefdfd;
      }

      .st1 {
        fill: #a95954;
      }

      .st2 {
        fill: #ef958c;
      }

      .st3 {
        fill: #743c40;
      }
    </style>
  </defs>
  <path class="st2" d="M70.8,32.1c-2.7,4.2-9.9,7.6-14.9,8.7s0-1,.4.6c-7.7,2.4-16,2-24.3,1.5-8.8-1.3-16.2-4.6-22.1-10.1-.7-.3-.7-.6,0-.9-.5-1.5,0-2.2.9-3.2,11.3-12.6,47.6-12,59,.2.9,1,1.5,1.7,1,3.2Z"/>
  <path class="st1" d="M31.9,42.8c-6.5-.4-12.6-2.7-18.2-5.6l-4.3-3.6.3-.8c5.8,4.7,12.5,7.5,20.3,8.9s1.9.5,1.9,1.2Z"/>
  <path class="st1" d="M70.8,32.1c-14.7-14.8-47.1-14.9-61-.3C4.8,28.4,2.1,21.8,1.3,15.3c1-5.5,5-8,10.6-9.3,6,2.2,12.5,3.5,19.2,3.6,12.1,1.7,25.3-.2,37.3-3.2s8.4,2.9,9.3,5.6c2.5,8.1-1.6,15-6.9,20.1Z"/>
  <g>
    <path class="st3" d="M56.3,41.3c0-.2-.8,0-1.5-.8,5.9-1.6,11.6-4.3,16-8.5l-.3-2c6.6-6.1,10.6-20-1.4-22.1-18.6,4.8-38.9,5.8-57.3-.3-12.8,2.8-9.2,14.7-2,22v2.1c.1.4,0,.7,0,.9.6.5.5.8-.3.8C4.1,29,.6,23.1,0,15.7s3.2-7.5,6.9-9.2C27.5-2.4,57.5-2.6,77.1,8.6c3.8,4.8,3.5,11.1.7,16.4-4.4,8.5-12.4,13.4-21.6,16.3Z"/>
    <path class="st0" d="M66.5,5.1c-15.6,5.2-38.9,4.4-52.5.3C31.6-.5,49.2-.4,66.5,5.1Z"/>
  </g>
</svg>