<?xml version="1.0" encoding="UTF-8"?>
<svg id="_レイヤー_1" xmlns="http://www.w3.org/2000/svg" version="1.1" viewBox="0 0 36.9 37.6">
  <!-- Generator: Adobe Illustrator 30.6.0, SVG Export Plug-In . SVG Version: 2.1.4 Build 109)  -->
  <defs>
    <style>
      .st0 {
        fill: #f0988e;
      }

      .st1 {
        fill: #783a43;
      }

      .st2 {
        fill: #fbf8f9;
      }

      .st3 {
        fill: #b25e58;
      }
    </style>
  </defs>
  <path class="st0" d="M35.2,23.4l.8.5c-.7,4.9-3.3,8.7-7.7,11.5-6.2,3-13.9,2.6-20,0l-.2-.8c-5.9-2.1-9.6-10-6.5-15.2,7.7-10.3,29-8.5,33.6,4.1Z"/>
  <g>
    <path class="st1" d="M28.3,35.4c-.6-.1-.8-.9,0-1.3,5.5-3.5,6.9-5.4,7-10.7-1.9-5.9-4.6-11.4-8-16.5-5.3,2-11.9,2.3-17.3,0-1.4,1.1-2.5,2.4-3.3,4.1-1.2,3.2-2.8,6-5,8.3C0,25.3,2.1,31.8,8.9,34.3s.5,1.1-.6,1.1C2.4,32.8-.5,28.2,0,21.7S3.7,8.4,8.8,3.8,25.9-.7,31,7s6.9,12,5.6,18.9-4.6,7.7-8.3,9.5Z"/>
    <path class="st3" d="M35.2,23.4C25.6,12.6,14.3,11.7,1.6,19.3c1.4-5.3,3.2-10.2,7.8-14.5,5.8,3.3,12.4,2,18.2.7,4.9,4.1,7.6,12,7.6,18Z"/>
    <path class="st2" d="M27,4.1c-3.5,1.6-12.2,2-16.2,0C15.3,0,21.6,0,27,4.1Z"/>
  </g>
</svg>