<?xml version="1.0" encoding="UTF-8"?>
<svg id="_レイヤー_1" xmlns="http://www.w3.org/2000/svg" version="1.1" viewBox="0 0 94.3 26.8">
  <!-- Generator: Adobe Illustrator 30.6.0, SVG Export Plug-In . SVG Version: 2.1.4 Build 109)  -->
  <defs>
    <style>
      .st0 {
        fill: #662e3b;
      }

      .st1 {
        fill: #d4ccce;
      }

      .st2 {
        fill: #d5ccce;
      }

      .st3 {
        fill: #9b7e85;
      }

      .st4 {
        fill: #846168;
      }

      .st5 {
        fill: #fffefe;
      }

      .st6 {
        fill: #d5cdcf;
      }

      .st7 {
        fill: #845f67;
      }

      .st8 {
        fill: #9a7d83;
      }

      .st9 {
        fill: #6e3e49;
      }

      .st10 {
        fill: #d3c8cc;
      }
    </style>
  </defs>
  <path class="st7" d="M90.9,6.4c.4,1.3,0,1.6-1.1.7h-2c-2.5-2.6-5.3-5.1-9.1-5.9-1.2,1.7-3.4,2.4-6.6,2.3-17,4.2-34.2,6.1-51.7,2.1-3,.3-5.1-.3-6.3-2l-5.3,2.2c-1.6,2-3.3,3-4.9,2.9-.9.5-1.2,0-.7-1.2,2.3-3.4,6.8-6.1,11.7-5.4,14.3,2,28.5,4,43,1.3,13.6-2.5,25.3-7.6,33,3Z"/>
  <path class="st9" d="M57.9,24.6c-1.6-.4-1.3-1,.3-.9.4-.7.9-1.4,1.7-1.7s17.8,1.3,19.4,1.7l2,1.6c5.5-1.4,12.5-6.4,6.2-11.4-.5,1.5-1.1,1.4-1.1-.3.1-.9,1-1.5,2.7-1.6-1-1.5-1.1-4,.7-4.9-.1-.4.3-1,1.1-.7,2.9,4,4.8,9.1,2,13.7-4.1,6.6-11.7,7.2-18.8,6.4l-16.2-1.9Z"/>
  <path class="st4" d="M10.8,24.5l2.6-1.6c3.3-.4,43-2.9,44.5-1.2s.5,1.3.4,2l-.3.9c-4.5-.5-8.7-.8-13.1-.6l-10.8.6-18.2,1.6c-4.3.4-7.9-.1-11.3-2.6-1.4-1.9-.9-1.8,1.1-.8l1-.7,4.2,2.3Z"/>
  <path class="st0" d="M4,8.8l1.5,1.5c-.1,1.3.4,2.4,1.7,3.3.1-2.4,1.4-2.2,1.8.1,0,1-1.1,1.6-3.5,1.6,0,1.1-.3,2.4-1.2,3.7,1,1.4,1.5,2.7,1.3,3.9l-1.1.8C1.7,21.7,0,19.2,0,15.8s1.3-5.5,3.3-8.2c.4.2.8.8.7,1.2Z"/>
  <path class="st5" d="M78.8,1.2c3.9.4,10.1,5.4,8.7,9.6s-.6,1.2-1.8,1.3c.7,1.4-6.7,3.2-6.3,3,1.1-.6,6.2-2.3,7.1-1.6l1.1.3c6.5,4.3-.8,10.5-6.2,11.4-9.2.4-15.4-1.8-23.1-1.6-.6-.1-1.6-.9-2.6-.9l-17.4.3-9.3.7c-6.3.5-12.2,1-18.1.7-4.7-1.2-9.1-6.6-3.5-9.1,1.1-.5,1.7-1.1,1.7-1.7-.5-.1-1.3-.3-1.8-.1-5.2-3.6,2.3-9.3,7-9.9,2.8.1,5.8.1,9.1.8,28.7,5.5,43.4-3.3,55.6-3.2Z"/>
  <path class="st1" d="M89.9,7.1c.5,1.6.7,3.9-.7,4.9-1.6.9-2.8.9-3.4.1,1.1-5-2.6-8.8-6.9-11,4.3,0,8.6,2.3,11,5.9Z"/>
  <path class="st6" d="M14.2,3.7c-4.6,2.8-7.7,4.4-7,9.9-1.4.5-2.9,0-3.2-1.3s-.2-2.4,0-3.5c2.2-3.7,6-5.3,10.2-5.1Z"/>
  <path class="st2" d="M81.3,25.3l3.2-1.9c3.8-2.2,4.7-6,3-9.5,1.3.2,2.5.4,3.2,1.1,1.1,1.1,1.5,3.1.8,4.4-2.1,4-6.3,5.7-10.2,5.9Z"/>
  <path class="st3" d="M89.1,12c-.6.5-2,1.4-2.7,1.6l-7.4,2.3-9.3-2.5c2.8-1.4,5.3.4,7.7,1.1s5.7-1.4,8.3-2.3,2.5,0,3.4-.1Z"/>
  <path class="st10" d="M5.5,15.3c.9-.4,1.5-.3,1.9.1-1,1.6-1.3,3.5-.2,5.5s2.3,2.5,3.7,3.6c-1.9-.1-3.5-.6-5.2-1.6s-2.9-2-3-3.9,1.2-3.1,2.8-3.7Z"/>
  <path class="st8" d="M7.3,15.4h-1.9c0-.1,3.5-1.7,3.5-1.7l5.2,1.5c1.5.4,3.7-1.5,5.7-.2-5,1.9-8.1.6-12.6.4Z"/>
</svg>