<?xml version="1.0" encoding="UTF-8"?>
<svg id="_レイヤー_1" xmlns="http://www.w3.org/2000/svg" version="1.1" viewBox="0 0 41 45.2">
  <!-- Generator: Adobe Illustrator 30.6.0, SVG Export Plug-In . SVG Version: 2.1.4 Build 109)  -->
  <defs>
    <style>
      .st0 {
        fill: #723b3f;
      }

      .st1 {
        fill: #ef958c;
      }

      .st2 {
        fill: #aa5a54;
      }

      .st3 {
        fill: #fcfafa;
      }
    </style>
  </defs>
  <path class="st1" d="M39.4,29.2c.1,3.1-1,6.3-3.4,9.6l-1.5,1.5c-1.2.3-2.2.7-2.1,1.7-6.8,3.8-16.6,4.4-23.5.2C-.8,33.8-3.3,23.4,11,17.4s28.3-1.5,28.4,11.9Z"/>
  <path class="st2" d="M39.4,29.2c-.5-3.2-2.5-5.9-5.7-8.2-9.7-7.1-25-4.6-31.8,5.9-1.5,7.2,4.9,10.8,7.1,15.2C4.5,39.5,0,34.4.4,29.5,0,20.5,2.7,8.8,11.1,4.7c6.1,1.9,12.9,2.1,19,0,.7-.1,1.3,0,2,.5,4.6,2.7,10.8,19.1,7.3,24Z"/>
  <path class="st0" d="M34.4,40.4l-2.1,1.7c-1.1-.5-.6-1-.3-1.3.7-.6,1.8-.8,2.4-.4Z"/>
  <g>
    <path class="st0" d="M36,38.9c.1-2.4,2.1-4.3,3.4-9.6,1.9-8.1-2.2-16.7-7.5-23.5-6.1,3-16.4,2.6-22.5.1C2.8,12.3.8,20.8.4,29.5-1,21,1.5,12.9,7.1,6.5s18-9,25.6-1.5c8.9,8.9,11.5,25.9,3.3,33.8Z"/>
    <path class="st3" d="M31,5.1c-6.8,2.7-13.6,2.2-20.6,0,6.1-5.7,14.3-5,20.6,0Z"/>
  </g>
</svg>