<?xml version="1.0" encoding="UTF-8"?>
<svg id="_レイヤー_1" xmlns="http://www.w3.org/2000/svg" version="1.1" viewBox="0 0 77 54.2">
  <!-- Generator: Adobe Illustrator 30.6.0, SVG Export Plug-In . SVG Version: 2.1.4 Build 109)  -->
  <defs>
    <style>
      .st0 {
        fill: #fefdfd;
      }

      .st1 {
        fill: #773841;
      }

      .st2 {
        fill: #f0978e;
      }

      .st3 {
        fill: #7a3b43;
      }

      .st4 {
        fill: #b05e58;
      }
    </style>
  </defs>
  <path class="st2" d="M69,33.7c.3,1,0,1.9-.9,2.8-4.3,6.2-9.8,11.3-16.5,15.2-8,3.4-17.6,3.5-25.7,0-6.9-3.8-12.5-8.8-16.9-15.2-1.1-1.2-1.5-2.3-1.3-3.5-1.3-3.3,1.5-6.1,4-8.1,13-10.2,42.4-10.3,54.7,1.1s4.1,4,2.6,7.8Z"/>
  <path class="st3" d="M51.6,51.7c.2-.7.6-1.6,1.4-2,7.3-3.6,12.2-9.3,16-15.9.1-3.3,1-6.6,2.7-9.7,1.6-4.9,2.4-10,2.3-15.3-1.7.4-5.3-.8-4.6-3.2v-1c2.5.8,5.2,1.7,7.5,3.4,1.3,17.6-9.6,36.8-25.3,43.8Z"/>
  <path class="st4" d="M69.4,5.5c1.6,1,3.7,1.6,5.8,2.3,1.3,9.6-1.8,18.1-6.2,25.9.1-4.3-5.4-8.7-10.6-10.8-13.4-5.6-28.8-5.4-41.9.9s-7.2,5.2-8.8,9.2C3.6,25.8.8,17.5,1.7,8.6c2.2-1.3,5.5-3.1,7.9-3.1,15.3,6.6,42.9,7.4,56.6.4s2.6-.8,3.3-.3Z"/>
  <g>
    <path class="st1" d="M69.5,4.5c1.4.5,1.4.8-.1,1-.2.6-.5,1.2-1,1.4-17.3,8.1-41.6,6.8-59.2.1-.3,0-6.2,2-6.2,2.3-.9,5.8,2.4,15,4.9,20.3l-.2,3.2c3.9,6.8,9,13.1,16.6,16.7s1.8.7,1.6,1.9c-8.2-3.6-15.2-10-19.5-18.2C2.3,25.4-.9,16.9.2,7.9,18.7-2.1,50.9-1.9,69.5,4.5Z"/>
    <path class="st0" d="M65.7,4.7c-10,4.2-25.6,5.5-35.7,4.3s-12.1-1-18.4-4.3c17.6-5.1,36.4-4.9,54,0Z"/>
  </g>
</svg>